<svg width="46" height="48" viewBox="0 0 46 48" fill="none" xmlns="http://www.w3.org/2000/svg">
<path d="M31.944 28.912C30.504 32.816 29.192 34.512 26.568 34.512C24.136 34.512 22.824 33.232 22.824 31.28C22.824 30.512 23.048 29.616 23.4 28.656L25.64 22.672C25.992 21.712 26.216 20.976 26.216 20.368C26.216 19.696 25.832 19.28 25.064 19.28C23.336 19.28 21.224 22.256 19.528 28.048L17.768 34C17.512 34 16.712 33.968 15.432 33.968C14.152 33.968 13.352 34 13.064 34L18.952 13.776C19.624 11.536 19.432 11.184 17.992 11.024L16.616 10.864V10.48L24.872 9.136L25.224 9.36C24.712 10.544 24.232 11.888 23.752 13.424L22.792 16.752C21.64 20.656 20.712 22.544 19.08 27.952C20.904 22 22.888 17.776 26.984 17.776C29.256 17.776 30.504 19.152 30.504 21.104C30.504 21.968 30.312 22.832 29.96 23.76L27.592 30.16C27.336 30.864 27.08 31.568 27.08 32.208C27.08 32.88 27.4 33.296 28.072 33.296C29.032 33.296 30.12 32.24 31.4 28.752L31.944 28.912Z" fill="white"/>
<circle cx="23" cy="23" r="22.5" stroke="#9A9A9A"/>
</svg>
