<svg
  width="157"
  height="59"
  viewBox="0 0 157 59"
  fill="none"
  xmlns="http://www.w3.org/2000/svg"
>
<path
    d="M23.0472 22.2563C21.4418 26.8941 19.8007 28.7135 16.7684 28.7135C13.8073 28.7135 12.0236 27.2151 12.0236 24.6465C12.0236 23.8617 12.2733 22.8628 12.6301 21.8639L15.2343 14.8359C15.5554 13.9797 15.8051 13.1592 15.8051 12.517C15.8051 11.9106 15.4841 11.6252 14.9133 11.6252C13.4506 11.6252 11.4885 14.3008 9.63335 20.6509L7.49285 28C7.10043 28 5.9945 27.9643 4.17508 27.9643C2.35565 27.9643 1.21405 28 0.821625 28L7.10043 6.48797C8.135 2.95615 7.8496 2.5994 6.1372 2.4567L4.95993 2.34967V1.85022L15.4127 0.173497L15.7338 0.458897C15.163 1.85022 14.6635 3.34857 14.1284 5.168L13.2365 8.23605C11.8095 13.1592 11.3101 13.0878 9.16958 20.4726C11.0247 14.0511 13.2009 9.62737 17.7316 9.62737C20.2645 9.62737 21.7629 11.1971 21.7629 13.5159C21.7629 14.4078 21.5845 15.2997 21.2634 16.2272L18.4094 24.1471C18.1597 24.7892 17.91 25.5741 17.91 26.2876C17.91 26.8941 18.231 27.2508 18.7662 27.2508C19.658 27.2508 20.9423 26.3233 22.4407 22.0779L23.0472 22.2563ZM38.4944 28.5351C35.5691 28.5351 33.9994 27.0011 33.9994 24.9319C33.9994 24.2898 34.0707 23.7547 34.1778 23.3622C32.8935 27.4649 31.6092 28.5351 29.433 28.5351C26.2222 28.5351 23.832 25.9665 23.832 22.2206C23.832 15.7635 28.7552 9.62737 35.6404 9.62737C38.102 9.62737 39.9571 10.2338 41.2057 11.3041L44.7019 9.62737H45.0586L43.4533 13.6586L40.0641 24.0401C39.8858 24.6109 39.636 25.5027 39.636 26.1092C39.636 26.8227 39.9928 27.1081 40.4922 27.1081C41.3128 27.1081 42.5257 26.3233 44.0954 22.0779L44.7019 22.2563C42.9538 27.0011 41.5625 28.5351 38.4944 28.5351ZM30.9313 27.2508C31.7519 27.2508 32.6081 26.3946 33.8924 22.4704L37.5312 11.2327C37.2101 10.5906 36.7464 10.2695 36.2112 10.2695C35.034 10.2695 34.1421 11.3398 32.7151 14.5505C31.3238 17.6899 29.7897 22.9698 29.7897 25.6811C29.7897 26.7514 30.2535 27.2508 30.9313 27.2508ZM51.661 28.5351C47.8438 28.5351 46.1671 27.0368 46.1671 24.3255C46.1671 23.4336 46.3098 22.4704 46.6308 21.4358L49.4848 11.7322L46.4881 11.0544L46.6308 10.4836L49.9843 9.98412L51.4826 4.95395H58.1182L56.5842 10.1625H61.65L61.436 11.1971L56.2274 11.4825L52.8026 23.1839C52.5172 24.2184 52.3388 25.039 52.3388 25.7168C52.3388 26.6087 52.8026 27.1438 53.7302 27.1438C54.9431 27.1438 56.4058 26.2519 58.1895 22.0779L58.7603 22.2563C56.7269 27.0368 55.1572 28.5351 51.661 28.5351ZM75.432 22.3277C73.0061 26.4303 70.7586 28.5351 66.9413 28.5351C62.5176 28.5351 59.8063 25.6098 59.8063 21.8639C59.7707 15.1213 65.1576 9.62737 71.7218 9.62737C75.1823 9.62737 77.2514 11.4468 77.2514 14.2651C77.2514 16.584 75.7174 18.011 73.7553 18.011C71.8288 18.011 70.3661 16.8337 70.3661 15.05C70.3661 13.1949 71.4721 12.2316 72.792 11.9106C73.6839 11.6965 73.9336 11.5538 73.9336 11.1257C73.898 10.6976 73.3985 10.2695 72.4353 10.2695C70.9726 10.2695 69.724 11.5895 68.511 14.1938C66.9413 17.4402 66.3349 21.1504 66.3349 23.2195C66.3349 26.0022 67.4408 26.9654 69.0105 26.9654C70.9726 26.9654 72.7564 25.4314 74.9325 22.0779L75.432 22.3277ZM98.4399 22.2563C96.8345 26.8941 95.1934 28.7135 92.1611 28.7135C89.2 28.7135 87.4163 27.2151 87.4163 24.6465C87.4163 23.8617 87.666 22.8628 88.0228 21.8639L90.627 14.8359C90.9481 13.9797 91.1978 13.1592 91.1978 12.517C91.1978 11.9106 90.8768 11.6252 90.306 11.6252C88.8433 11.6252 86.8812 14.3008 85.0261 20.6509L82.8856 28C82.4931 28 81.3872 27.9643 79.5678 27.9643C77.7484 27.9643 76.6068 28 76.2143 28L82.4931 6.48797C83.5277 2.95615 83.2423 2.5994 81.5299 2.4567L80.3526 2.34967V1.85022L90.8054 0.173497L91.1265 0.458897C90.5557 1.85022 90.0562 3.34857 89.5211 5.168L88.6292 8.23605C87.2022 13.1592 86.7028 13.0878 84.5623 20.4726C86.4174 14.0511 88.5936 9.62737 93.1243 9.62737C95.6572 9.62737 97.1556 11.1971 97.1556 13.5159C97.1556 14.4078 96.9772 15.2997 96.6561 16.2272L93.8021 24.1471C93.5524 24.7892 93.3027 25.5741 93.3027 26.2876C93.3027 26.8941 93.6237 27.2508 94.1589 27.2508C95.0507 27.2508 96.335 26.3233 97.8334 22.0779L98.4399 22.2563ZM17.6246 52.3277C15.1987 56.4303 12.9511 58.5351 9.1339 58.5351C4.7102 58.5351 1.9989 55.6098 1.9989 51.8639C1.96323 45.1213 7.35015 39.6274 13.9144 39.6274C17.3748 39.6274 19.444 41.4468 19.444 44.2651C19.444 46.584 17.91 48.011 15.9478 48.011C14.0214 48.011 12.5587 46.8337 12.5587 45.05C12.5587 43.1949 13.6646 42.2316 14.9846 41.9106C15.8765 41.6965 16.1262 41.5538 16.1262 41.1257C16.0905 40.6976 15.5911 40.2695 14.6279 40.2695C13.1652 40.2695 11.9166 41.5895 10.7036 44.1938C9.1339 47.4402 8.52743 51.1504 8.52743 53.2195C8.52743 56.0022 9.63335 56.9654 11.2031 56.9654C13.1652 56.9654 14.9489 55.4314 17.1251 52.0779L17.6246 52.3277ZM26.5283 58C26.1358 58 25.0656 57.9643 23.2462 57.9643C21.4267 57.9643 20.3208 58 19.9284 58L24.2807 44.4078C24.6018 43.3732 24.7445 42.517 24.7445 41.8749C24.7445 41.2327 24.4234 40.983 23.8883 40.983C22.9964 40.983 21.7835 41.8392 20.2851 46.0845L19.6787 45.9062C21.284 41.2684 22.711 39.6274 25.8861 39.6274C28.0623 39.6274 30.0244 40.5192 30.0244 43.1592C30.0244 44.4078 29.5963 46.1559 28.6688 49.1883C29.1682 47.6186 29.739 46.0845 30.3098 44.7289C31.7725 41.1971 33.2352 39.6274 35.9108 39.6274C38.2297 39.6274 39.6567 41.0544 39.6567 43.3019C39.6567 45.6564 38.0513 47.1905 36.0892 47.1905C34.1627 47.1905 32.9141 46.0489 32.9141 44.1224C32.9141 43.8013 32.9854 43.4446 32.9854 43.1949C32.9854 42.9808 32.8784 42.8381 32.6287 42.8381C32.1649 42.8381 31.5584 43.4089 30.8093 45.0143C30.2028 46.2986 29.4179 48.5104 28.7401 50.7223L26.5283 58ZM46.0447 58.5351C41.6567 58.5351 38.9454 55.6098 38.9454 51.8639C38.9454 45.7991 43.6545 39.6274 50.8252 39.6274C54.464 39.6274 56.3905 41.0544 56.3905 43.0522C56.3905 46.4413 52.93 47.7969 45.7593 50.0088C45.5809 51.1147 45.4739 52.185 45.4739 53.2195C45.4739 56.0022 46.5798 56.9654 48.1495 56.9654C50.1117 56.9654 51.8954 55.4314 54.0716 52.0779L54.571 52.3277C52.1451 56.4303 49.8619 58.5351 46.0447 58.5351ZM45.8663 49.545L46.2588 49.331C47.7214 48.6531 49.0771 47.6542 49.969 46.5126C51.0035 45.157 51.7884 43.3019 51.7884 41.7322C51.7884 40.6263 51.503 40.2695 50.6825 40.2695C48.9344 40.2695 46.7225 44.9073 45.8663 49.545ZM71.1217 58.5351C68.1964 58.5351 66.6267 57.0011 66.6267 54.9319C66.6267 54.2898 66.698 53.7547 66.8051 53.3622C65.5208 57.4649 64.2365 58.5351 62.0603 58.5351C58.8495 58.5351 56.4593 55.9665 56.4593 52.2206C56.4593 45.7635 61.3825 39.6274 68.2677 39.6274C70.7293 39.6274 72.5844 40.2338 73.833 41.3041L77.3292 39.6274H77.6859L76.0806 43.6586L72.6914 54.0401C72.5131 54.6109 72.2633 55.5027 72.2633 56.1092C72.2633 56.8227 72.6201 57.1081 73.1195 57.1081C73.9401 57.1081 75.153 56.3233 76.7227 52.0779L77.3292 52.2563C75.5811 57.0011 74.1898 58.5351 71.1217 58.5351ZM63.5586 57.2508C64.3792 57.2508 65.2354 56.3946 66.5197 52.4704L70.1585 41.2327C69.8374 40.5906 69.3737 40.2695 68.8385 40.2695C67.6613 40.2695 66.7694 41.3398 65.3424 44.5505C63.9511 47.6899 62.417 52.9698 62.417 55.6811C62.417 56.7514 62.8808 57.2508 63.5586 57.2508ZM84.2883 58.5351C80.4711 58.5351 78.7944 57.0368 78.7944 54.3255C78.7944 53.4336 78.9371 52.4704 79.2581 51.4358L82.1121 41.7322L79.1154 41.0544L79.2581 40.4836L82.6116 39.9841L84.1099 34.9539H90.7455L89.2115 40.1625H94.2773L94.0633 41.1971L88.8547 41.4825L85.4299 53.1839C85.1445 54.2184 84.9661 55.039 84.9661 55.7168C84.9661 56.6087 85.4299 57.1438 86.3575 57.1438C87.5704 57.1438 89.0331 56.2519 90.8168 52.0779L91.3876 52.2563C89.3542 57.0368 87.7845 58.5351 84.2883 58.5351ZM106.017 34.2761C106.017 36.5593 104.305 38.022 101.951 38.022C99.6673 38.022 98.0263 36.5593 98.0263 34.2761C98.0263 32.0286 99.703 30.6016 101.986 30.6016C104.341 30.6016 106.017 32.0286 106.017 34.2761ZM104.483 52.2563C102.878 56.8941 101.415 58.5351 98.383 58.5351C95.422 58.5351 93.5312 57.1081 93.5312 54.5395C93.5312 53.7547 93.7453 52.7558 94.1377 51.7569L97.0987 44.1581C97.3484 43.5159 97.6338 42.6597 97.6338 41.9462C97.6338 41.3398 97.3128 40.983 96.7776 40.983C95.8144 40.983 94.6371 41.8392 93.1388 46.0845L92.5323 45.9062C94.1377 41.2684 95.5647 39.6274 98.7041 39.6274C101.665 39.6274 103.485 41.1257 103.485 43.6943C103.485 44.4792 103.235 45.5494 102.842 46.5483L99.8814 54.1114C99.6316 54.7536 99.3819 55.5384 99.3819 56.2519C99.3819 56.8584 99.7387 57.1795 100.274 57.1795C101.166 57.1795 102.379 56.3233 103.877 52.0779L104.483 52.2563ZM119.219 53.7547C117.185 56.787 114.652 58.6065 111.62 58.6065C108.623 58.6065 106.554 56.6087 106.554 53.719C106.554 50.0801 109.052 47.7256 111.121 46.3343C112.441 45.4424 113.297 44.9786 114.01 43.944L113.939 43.9084C113.118 44.8002 112.191 45.3354 110.835 45.3354C109.694 45.3354 108.98 45.2283 108.088 45.2283C107.268 45.2283 106.982 45.8705 107.268 46.798L106.947 46.9407C106.233 45.9775 105.627 44.8716 105.627 43.3732C105.627 41.4468 106.626 39.9841 108.481 39.9841C110.907 39.9841 112.298 42.3387 113.761 42.3387C114.331 42.3387 114.831 41.5538 114.581 40.1982C115.295 39.8771 115.937 40.1625 115.937 40.8046C115.937 41.4111 115.723 41.9462 115.33 42.7311C113.868 45.5851 113.047 48.1894 113.047 51.2931C113.047 54.1828 114.046 55.7881 115.58 55.7881C116.65 55.7881 117.721 54.9319 118.719 53.3266C119.968 51.3288 120.717 49.1169 120.717 47.3688C120.717 46.798 120.682 46.4056 120.36 46.0845C120.111 45.8348 119.611 45.6564 118.933 45.5137C117.721 45.2283 116.543 44.4792 116.543 42.8024C116.543 41.09 117.685 39.6987 119.647 39.6987C121.68 39.6987 123 41.0544 123 43.4089C123 46.0845 121.359 50.5439 119.219 53.7547ZM130.592 58.5351C126.204 58.5351 123.492 55.6098 123.492 51.8639C123.492 45.7991 128.201 39.6274 135.372 39.6274C139.011 39.6274 140.937 41.0544 140.937 43.0522C140.937 46.4413 137.477 47.7969 130.306 50.0088C130.128 51.1147 130.021 52.185 130.021 53.2195C130.021 56.0022 131.127 56.9654 132.697 56.9654C134.659 56.9654 136.442 55.4314 138.619 52.0779L139.118 52.3277C136.692 56.4303 134.409 58.5351 130.592 58.5351ZM130.413 49.545L130.806 49.331C132.268 48.6531 133.624 47.6542 134.516 46.5126C135.551 45.157 136.335 43.3019 136.335 41.7322C136.335 40.6263 136.05 40.2695 135.229 40.2695C133.481 40.2695 131.27 44.9073 130.413 49.545ZM154.642 52.0423C154.642 56.9654 149.577 58.5351 146.366 58.5351C142.584 58.5351 139.659 57.1081 139.659 54.1828C139.659 52.2206 141.05 50.8293 142.87 50.8293C144.546 50.8293 145.795 51.8996 145.795 53.6476C145.795 55.9665 143.762 55.8595 143.762 56.8227C143.762 57.2865 144.404 57.893 146.366 57.893C148.72 57.893 150.005 56.6443 150.005 55.2173C150.005 53.7903 149.363 53.0055 146.616 51.5428C144.653 50.5082 142.299 49.1526 142.299 45.9418C142.299 42.0176 145.902 39.6274 150.147 39.6274C154 39.6274 156.426 41.2684 156.426 43.7657C156.426 45.5851 155.142 46.8694 153.358 46.8694C151.824 46.8694 150.576 45.7991 150.576 44.1938C150.576 42.0176 152.502 41.9106 152.502 41.1614C152.502 40.6619 151.574 40.2695 150.112 40.2695C148.114 40.2695 147.008 41.3754 147.008 42.8024C147.008 44.5862 148.257 45.3354 150.397 46.4056C152.395 47.4045 154.642 48.9742 154.642 52.0423Z"
    fill="#BD5854"
  />
</svg>
